# xmcd
#
# Track frame offsets: 
#        150
#        24610
#        48170
#        61985
#        95035
#        107880
#        120425
#        134190
#        151572
#        167607
#        179952
#        205957
#        217495
#        228075
#
# Disc length: 3214 seconds
#
# Revision: 4
# Processed by: cddbd v1.5.1PL0 Copyright (c) Steve Scherf et al.
# Submitted via: ExactAudioCopy v0.95a5
#
DISCID=cd0c8c0e
DTITLE=Various Artist - Superblues, Volume 1
DYEAR=1990
DGENRE=Blues
TTITLE0=B. B. King - The Thrill Is Gone
TTITLE1=Z. Z. Hill - Down Home Blues
TTITLE2=Ike and Tina Turner - It's Gonna Work Out Fine
TTITLE3=Albert King - I'll Play the Blues for You (Parts 1 and 2)
TTITLE4=Howlin' Wolf - Killing Floor
TTITLE5=Jimmy Reed - Honest I Do
TTITLE6=Koko Taylor - Wang Dang Doodle
TTITLE7=Little Johnny Taylor - Part Time Love
TTITLE8=Johnnie Taylor - Part Time Love
TTITLE9=Bobby "Blue" Bland - I Pity the Fool
TTITLE10=Little Milton - Blue Monday
TTITLE11=Lightnin' Hopkins - Got To Move Your Baby
TTITLE12=Irma Thomas - Wish Someone Would Care
TTITLE13=Johnny "Guitar" Watson and Larry Williams - Mercy, Mercy, Mercy
EXTD=LABEL =Stax Records - Fantasy, Inc.\nID =SCD-8551-2\nUPC =02521
EXTD=8-8551-29\nCOPYRIGHT =1990\n*****\nsubtitle ="All Time Classic 
EXTD=Blues Hits"
EXTT0=
EXTT1=
EXTT2=
EXTT3=
EXTT4=
EXTT5=
EXTT6=
EXTT7=
EXTT8=
EXTT9=
EXTT10=
EXTT11=
EXTT12=
EXTT13=
PLAYORDER=
